<?xml version="1.0" standalone="no"?><!DOCTYPE svg PUBLIC "-//W3C//DTD SVG 1.1//EN" "http://www.w3.org/Graphics/SVG/1.1/DTD/svg11.dtd"><svg t="1570502684683" class="icon" viewBox="0 0 1024 1024" version="1.1" xmlns="http://www.w3.org/2000/svg" p-id="3367" xmlns:xlink="http://www.w3.org/1999/xlink" width="200" height="200"><defs><style type="text/css"></style></defs><path d="M888.5 222.7v-31.6l-65.7-1h-0.2c-7.5-0.3-75.4-3.4-144.3-31.3-77-31.2-126.3-66.8-126.7-67.1L511.8 63l-39.2 28.5c-2 1.5-49.9 36-126.9 67.3-73.7 30-143.8 31.3-144.5 31.3l-65.9 1v378.8c0 87.1 49.9 184.7 137 267.9 37.5 35.8 79.3 66.3 120.9 88.2 43.2 22.7 84.2 34.6 118.8 34.6 34.4 0 75.8-12.2 119.6-35.2 41.3-21.8 82.8-52.1 120-87.6 39.6-37.7 72.8-80.2 96.2-122.9 27.1-49.6 40.8-98.3 40.8-145l-0.1-347.2z m-378.4-79.3l1.7-1.3 1.8 1.3c5.8 4.2 59.5 41.9 140.3 74.8 79.2 32.1 153.6 35.6 167.7 36l2.6 0.1 0.2 315.7c0.1 69.5-42.6 150.2-117.1 221.5-65.7 62.8-144.2 105-195.3 105-23.7 0-55.6-9.9-89.7-27.8-35.8-18.8-72.3-45.5-105.6-77.3-74.5-71.2-117.2-151.9-117.2-221.5V254.2l2.7-0.1c3.3 0 82.6-1.5 167.7-36 80-32.5 134.3-70.4 140.2-74.6v-0.1z" fill="#ababab" p-id="3368"></path><path d="M713.3 368.6c-12.5-12.4-32.9-12.4-45.3 0L449.2 587.5 356 494.3c-12.5-12.4-32.9-12.4-45.3 0-12.4 12.5-12.4 32.9 0 45.3l115.8 115.8c6.2 6.2 14.4 9.3 22.6 9.3 8.2 0 16.4-3.1 22.7-9.3l241.5-241.5c12.4-12.5 12.4-32.8 0-45.3z" fill="#ababab" p-id="3369"></path></svg>